<svg width="172" height="51" viewBox="0 0 172 51" fill="none" xmlns="http://www.w3.org/2000/svg">
    <path d="M98.216 18.672V34H94.728V32.048H94.632C93.288 33.712 91.5387 34.544 89.384 34.544C87.4853 34.544 85.7787 33.8187 84.264 32.368C82.7707 30.896 82.024 28.88 82.024 26.32C82.024 23.9307 82.76 21.9787 84.232 20.464C85.704 18.9493 87.5067 18.192 89.64 18.192C91.688 18.192 93.3627 19.0453 94.664 20.752H94.728V18.672H98.216ZM85.704 26.32C85.704 27.7067 86.0987 28.9013 86.888 29.904C87.6987 30.9067 88.8507 31.408 90.344 31.408C91.56 31.408 92.616 30.9387 93.512 30C94.4293 29.04 94.888 27.8453 94.888 26.416C94.888 24.9013 94.4507 23.664 93.576 22.704C92.7227 21.744 91.656 21.264 90.376 21.264C88.8827 21.264 87.7307 21.7653 86.92 22.768C86.1093 23.7707 85.704 24.9547 85.704 26.32ZM117.529 10.96V34H114.041V32.176H113.945C112.579 33.7547 110.809 34.544 108.633 34.544C106.734 34.544 105.038 33.8187 103.545 32.368C102.073 30.896 101.337 28.88 101.337 26.32C101.337 23.952 102.062 22 103.513 20.464C104.963 18.928 106.734 18.16 108.825 18.16C110.894 18.16 112.59 18.9707 113.913 20.592H114.009V10.96H117.529ZM105.016 26.32C105.016 27.7067 105.411 28.9013 106.201 29.904C107.011 30.9067 108.153 31.408 109.625 31.408C110.862 31.408 111.929 30.9387 112.825 30C113.742 29.04 114.201 27.8453 114.201 26.416C114.201 24.88 113.763 23.632 112.889 22.672C112.014 21.712 110.937 21.232 109.657 21.232C108.206 21.232 107.065 21.744 106.233 22.768C105.422 23.7707 105.016 24.9547 105.016 26.32ZM121.705 34V18.672H125.257V20.592H125.321C126.452 18.9707 127.945 18.16 129.801 18.16C130.932 18.16 131.924 18.448 132.777 19.024C133.63 19.5787 134.206 20.272 134.505 21.104C134.932 20.3147 135.604 19.632 136.521 19.056C137.438 18.4587 138.473 18.16 139.625 18.16C141.396 18.16 142.804 18.768 143.849 19.984C144.894 21.2 145.417 22.928 145.417 25.168V34H141.865V25.136C141.865 24.048 141.598 23.1413 141.065 22.416C140.553 21.6907 139.796 21.328 138.793 21.328C137.833 21.328 137.022 21.7013 136.361 22.448C135.7 23.1733 135.369 24.24 135.369 25.648V34H131.785V25.136C131.785 24.0267 131.508 23.12 130.953 22.416C130.398 21.6907 129.662 21.328 128.745 21.328C127.678 21.328 126.836 21.712 126.217 22.48C125.598 23.248 125.289 24.304 125.289 25.648V34H121.705ZM149.424 34V18.672H153.008V34H149.424ZM149.232 15.28V11.632H153.2V15.28H149.232ZM157.174 34V18.672H160.726V20.592H160.79C161.92 18.9707 163.478 18.16 165.462 18.16C167.168 18.16 168.587 18.7467 169.718 19.92C170.848 21.0933 171.414 22.8427 171.414 25.168V34H167.83V25.36C167.83 24.0587 167.542 23.0667 166.966 22.384C166.39 21.68 165.579 21.328 164.534 21.328C163.382 21.328 162.464 21.7227 161.782 22.512C161.099 23.3013 160.758 24.4213 160.758 25.872V34H157.174Z" fill="white"/>
    <path d="M67.5 27C67.5 37.4934 58.7696 46 48 46C37.2304 46 28.5 37.4934 28.5 27C28.5 16.5066 37.2304 8 48 8C58.7696 8 67.5 16.5066 67.5 27Z" fill="url(#paint0_linear_0_1)"/>
    <g filter="url(#filter0_b_0_1)">
    <circle cx="25.5" cy="25.5" r="25.5" fill="#D9D9D9" fill-opacity="0.4"/>
    </g>
    <defs>
    <filter id="filter0_b_0_1" x="-19" y="-19" width="89" height="89" filterUnits="userSpaceOnUse" color-interpolation-filters="sRGB">
    <feFlood flood-opacity="0" result="BackgroundImageFix"/>
    <feGaussianBlur in="BackgroundImageFix" stdDeviation="9.5"/>
    <feComposite in2="SourceAlpha" operator="in" result="effect1_backgroundBlur_0_1"/>
    <feBlend mode="normal" in="SourceGraphic" in2="effect1_backgroundBlur_0_1" result="shape"/>
    </filter>
    <linearGradient id="paint0_linear_0_1" x1="68.5" y1="27" x2="33.5" y2="31" gradientUnits="userSpaceOnUse">
    <stop stop-color="#7827B2"/>
    <stop offset="0.528935" stop-color="#FF4667"/>
    <stop offset="1" stop-color="#3FECFC"/>
    </linearGradient>
    </defs>
    </svg>
    