<svg width="157" height="36" viewBox="0 0 157 36" fill="none" xmlns="http://www.w3.org/2000/svg">
<path d="M72.912 14.504V26H70.296V24.536H70.224C69.216 25.784 67.904 26.408 66.288 26.408C64.864 26.408 63.584 25.864 62.448 24.776C61.328 23.672 60.768 22.16 60.768 20.24C60.768 18.448 61.32 16.984 62.424 15.848C63.528 14.712 64.88 14.144 66.48 14.144C68.016 14.144 69.272 14.784 70.248 16.064H70.296V14.504H72.912ZM63.528 20.24C63.528 21.28 63.824 22.176 64.416 22.928C65.024 23.68 65.888 24.056 67.008 24.056C67.92 24.056 68.712 23.704 69.384 23C70.072 22.28 70.416 21.384 70.416 20.312C70.416 19.176 70.088 18.248 69.432 17.528C68.792 16.808 67.992 16.448 67.032 16.448C65.912 16.448 65.048 16.824 64.44 17.576C63.832 18.328 63.528 19.216 63.528 20.24ZM87.3964 8.72V26H84.7804V24.632H84.7084C83.6844 25.816 82.3564 26.408 80.7244 26.408C79.3004 26.408 78.0284 25.864 76.9084 24.776C75.8044 23.672 75.2524 22.16 75.2524 20.24C75.2524 18.464 75.7964 17 76.8844 15.848C77.9724 14.696 79.3004 14.12 80.8684 14.12C82.4204 14.12 83.6924 14.728 84.6844 15.944H84.7564V8.72H87.3964ZM78.0124 20.24C78.0124 21.28 78.3084 22.176 78.9004 22.928C79.5084 23.68 80.3644 24.056 81.4684 24.056C82.3964 24.056 83.1964 23.704 83.8684 23C84.5564 22.28 84.9004 21.384 84.9004 20.312C84.9004 19.16 84.5724 18.224 83.9164 17.504C83.2604 16.784 82.4524 16.424 81.4924 16.424C80.4044 16.424 79.5484 16.808 78.9244 17.576C78.3164 18.328 78.0124 19.216 78.0124 20.24ZM90.5288 26V14.504H93.1928V15.944H93.2408C94.0888 14.728 95.2088 14.12 96.6008 14.12C97.4488 14.12 98.1928 14.336 98.8328 14.768C99.4728 15.184 99.9048 15.704 100.129 16.328C100.449 15.736 100.953 15.224 101.641 14.792C102.329 14.344 103.105 14.12 103.969 14.12C105.297 14.12 106.353 14.576 107.137 15.488C107.921 16.4 108.313 17.696 108.313 19.376V26H105.649V19.352C105.649 18.536 105.449 17.856 105.049 17.312C104.665 16.768 104.097 16.496 103.345 16.496C102.625 16.496 102.017 16.776 101.521 17.336C101.025 17.88 100.777 18.68 100.777 19.736V26H98.0888V19.352C98.0888 18.52 97.8808 17.84 97.4648 17.312C97.0488 16.768 96.4968 16.496 95.8088 16.496C95.0088 16.496 94.3768 16.784 93.9128 17.36C93.4488 17.936 93.2168 18.728 93.2168 19.736V26H90.5288ZM111.318 26V14.504H114.006V26H111.318ZM111.174 11.96V9.224H114.15V11.96H111.174ZM117.13 26V14.504H119.794V15.944H119.842C120.69 14.728 121.858 14.12 123.346 14.12C124.626 14.12 125.69 14.56 126.538 15.44C127.386 16.32 127.81 17.632 127.81 19.376V26H125.122V19.52C125.122 18.544 124.906 17.8 124.474 17.288C124.042 16.76 123.434 16.496 122.65 16.496C121.786 16.496 121.098 16.792 120.586 17.384C120.074 17.976 119.818 18.816 119.818 19.904V26H117.13Z" fill="black"/>
<path d="M47.3276 18.931C47.3276 26.2885 41.2062 32.2529 33.6552 32.2529C26.1041 32.2529 19.9828 26.2885 19.9828 18.931C19.9828 11.5736 26.1041 5.60921 33.6552 5.60921C41.2062 5.60921 47.3276 11.5736 47.3276 18.931Z" fill="url(#paint0_linear_1_7)"/>
<g filter="url(#filter0_b_1_7)">
<circle cx="17.8793" cy="17.8793" r="17.8793" fill="white" fill-opacity="0.4"/>
</g>
<defs>
<filter id="filter0_b_1_7" x="-19" y="-19" width="73.7586" height="73.7586" filterUnits="userSpaceOnUse" color-interpolation-filters="sRGB">
<feFlood flood-opacity="0" result="BackgroundImageFix"/>
<feGaussianBlur in="BackgroundImageFix" stdDeviation="9.5"/>
<feComposite in2="SourceAlpha" operator="in" result="effect1_backgroundBlur_1_7"/>
<feBlend mode="normal" in="SourceGraphic" in2="effect1_backgroundBlur_1_7" result="shape"/>
</filter>
<linearGradient id="paint0_linear_1_7" x1="48.0287" y1="18.931" x2="23.4885" y2="21.7356" gradientUnits="userSpaceOnUse">
<stop stop-color="#7827B2"/>
<stop offset="0.528935" stop-color="#FF4667"/>
<stop offset="1" stop-color="#3FECFC"/>
</linearGradient>
</defs>
</svg>
